<?xml version="1.0" encoding="UTF-8" standalone="no"?>
<!DOCTYPE svg PUBLIC "-//W3C//DTD SVG 1.1//EN" "http://www.w3.org/Graphics/SVG/1.1/DTD/svg11.dtd">
<svg width="100%" height="100%" viewBox="0 0 1254 1254" version="1.1" xmlns="http://www.w3.org/2000/svg" xmlns:xlink="http://www.w3.org/1999/xlink" xml:space="preserve" xmlns:serif="http://www.serif.com/" style="fill-rule:evenodd;clip-rule:evenodd;stroke-linejoin:round;stroke-miterlimit:2;">
    <g id="Background" transform="matrix(1.224609,0,0,1.224609,0,0)">
        <path d="M0,0L1024,0C1027.466,0 1024.498,1023.921 1024,1024L0,1024C-4.42,1021.466 -0,0 0,0Z" style="fill:rgb(26,26,28);"/>
        <path d="M429.897,588.264C383.418,524.344 424.832,447.311 478.62,429.852C577.106,397.885 654.824,510.125 592.187,591.251C577.828,608.753 565.923,615.608 551.391,622.126C530.034,630.603 505,634.83 473.567,622.295C447.081,610.568 438.649,598.734 429.897,588.264Z" style="fill:rgb(15,15,16);"/>
        <path d="M287.014,530.642L288.51,529.5C300.803,537.877 441.244,633.585 442.475,633.771C444.577,634.091 444.157,633.113 445.745,631.205C447.932,633.826 447.057,634.267 451.12,673.528C459.19,751.511 458.51,751.475 466.913,829.44C471.486,871.876 471.328,871.895 472.089,875.526C472.338,876.715 471.637,878.803 469.843,876.189C468.557,874.317 306.225,691.683 303.902,689.123C297.019,681.539 298.563,680.618 299.187,675.459C306.431,615.645 307.125,615.705 306.904,610.474C306.748,606.773 293.162,557.399 287.014,530.642Z" style="fill:rgb(202,36,37);"/>
        <path d="M736.915,530.665C736.53,534.854 720.628,595.558 718.897,602.583C715.8,615.157 718.257,615.31 725.546,680.496C725.78,682.587 724.558,684.126 724.356,684.38C723.307,685.703 679.084,735.741 675.141,740.202C665.878,750.683 570.871,858.182 558.889,870.79C558.841,870.703 557.383,870.352 557.635,868.5C560.282,849.08 558.957,849.009 561.636,829.518C566.816,791.827 580.773,649.657 581.681,637.507C581.839,635.398 581.616,634.883 590.759,628.913C613.068,614.345 612.519,613.66 634.784,598.922C695.067,559.018 694.355,558.102 699.615,554.672C726.255,537.297 725.631,536.455 731.528,532.54C736.6,529.173 736.903,530.666 736.915,530.665Z" style="fill:rgb(175,33,34);"/>
        <path d="M398.183,207.421C399.826,204.324 434.452,182.799 435.49,183.517C436.82,184.437 466.657,288.235 477.022,322.646C481.174,336.43 482.496,364.021 481.582,365.574C480.814,366.88 355.259,403.548 350.067,502.481C349.792,507.712 347.621,506.201 342.458,507.352C338.953,508.134 312.387,514.058 298.498,516.481C295.784,516.955 296.565,512.032 296.527,489.5C296.515,482.462 296.452,444.48 315.858,403.68C358.078,314.92 433.093,297.605 434.099,293.432C434.55,291.562 424.586,269.469 423.664,267.425C410.851,239.014 403.867,219.065 400.388,214.65C400.152,210.803 399.608,211.033 398.183,207.421Z" style="fill:rgb(203,35,37);"/>
        <path d="M626.553,208.491C626.039,209.268 624.851,208.878 623.811,212.635C623.532,213.643 623.885,213.638 623.612,214.626C621.579,218.447 589.604,292.243 590.139,293.664C590.632,294.975 591.066,294.548 596.396,296.756C689.344,335.266 727.501,425.369 727.581,485.5C727.617,513.128 728.064,513.167 727.488,515.496C727.063,517.219 726.124,517.04 705.536,512.342C677.128,505.86 674.255,507.982 673.969,502.478C669.839,422.933 587.551,382.137 549.549,368.365C545.195,366.787 541.583,368.416 542.34,359.481C544.54,333.541 543.307,333.275 551.21,308.416C557.41,288.915 587.615,184.553 588.659,183.7C589.479,183.03 593.817,185.69 594.226,185.941C625.107,204.883 625.38,205.564 626.553,208.491Z" style="fill:rgb(203,35,37);"/>
        <path d="M574.363,556.437C543.078,621.384 449.155,602.541 443.892,531.47C440.19,481.481 497.616,434.269 552.111,470.999C559.599,476.045 581.881,496.677 580.76,529.513C580.367,541.001 575.165,554.374 574.363,556.437Z" style="fill:rgb(34,34,36);"/>
        <path d="M387.257,564.634C363.067,494.948 414.984,395.685 513.501,395.364C591.009,395.112 664.627,474.218 636.778,566.599C636.585,566.364 637.139,565.937 636.946,565.702C635.295,563.697 634.735,565.498 601.814,585.992C594.81,590.352 595.57,592.806 593.5,591.773C593.079,591.563 592.608,591.461 592.187,591.251C654.824,510.125 577.106,397.885 478.62,429.852C424.832,447.311 383.418,524.344 429.897,588.264C428.608,590.308 428.699,590.551 428.511,590.463C428.209,590.324 428.557,590 425.268,587.859C395.04,568.174 391.576,566.352 388.5,564.735L387.257,564.634Z" style="fill:rgb(202,35,36);"/>
        <path d="M464.837,649.029C470.021,651.289 469.965,651.218 475.344,652.79C478.803,653.922 497.832,660.147 520.487,658.345C522.782,658.162 539.412,656.839 548.752,652.956C554.097,651.17 554.118,651.394 559.344,649.271C559.405,650.908 559.618,650.812 559.464,652.493C558.195,666.324 558.938,666.336 558.762,667.527C554.551,696.152 545.339,807.141 543.369,809.296C542.193,810.582 517.895,821.09 513.527,822.586C510.487,823.627 480.885,810.345 480.29,808.618C479.997,807.768 474.803,756.086 474.344,751.516C472.07,728.891 465.145,658.285 464.016,650.5L464.837,649.029Z" style="fill:rgb(31,30,33);"/>
        <path d="M510.423,114.326C511.056,115.137 512.257,114.624 512.272,118.497C512.312,128.638 511.903,321.186 512.541,328.814C496.904,328.855 494.505,329.027 493.489,328.519C492.394,327.971 476.001,268.794 472.489,257.504C466.455,238.11 446.603,169.731 444.527,164.476C443.884,159.414 443.049,157.987 442.758,157.489C442.2,156.534 442.533,156.498 442.288,155.418C445.598,151.552 510.388,114.345 510.423,114.326Z" style="fill:rgb(204,35,37);"/>
        <path d="M510.423,114.326C514.442,113.364 516.975,116.197 537.724,128.113C580.316,152.575 580.455,152.804 582.668,156.433C579.66,159.91 580.004,160.152 579.848,164.824C577.871,168.155 535.192,314.425 531.389,327.458C530.843,329.331 527.728,328.932 512.541,328.814C511.903,321.186 512.312,128.638 512.272,118.497C512.257,114.624 511.056,115.137 510.423,114.326Z" style="fill:rgb(164,31,32);"/>
        <path d="M530.686,491.611C522.337,507.776 533.875,522.161 551.475,518.412C552.174,519.502 555.37,524.491 552.7,534.555C540.349,581.115 491.939,571.709 478.94,551.213C455.138,513.684 491.472,481.327 517.525,486.341C528.254,488.406 527.918,489.405 530.686,491.611Z" style="fill:rgb(19,19,20);"/>
        <path d="M473.567,622.295C505,634.83 530.034,630.603 551.391,622.126C551.849,623.845 552.039,623.802 551.546,625.509C550.934,627.629 551.336,627.684 548.752,652.956C539.412,656.839 522.782,658.162 520.487,658.345C497.832,660.147 478.803,653.922 475.344,652.79C473.998,625.639 471.821,625.798 472.339,623.5C472.465,622.941 473.441,622.854 473.567,622.295Z" style="fill:rgb(202,35,37);"/>
        <path d="M736.915,530.665C736.903,530.666 736.6,529.173 731.528,532.54C725.631,536.455 726.255,537.297 699.615,554.672C694.355,558.102 695.067,559.018 634.784,598.922C612.519,613.66 613.068,614.345 590.759,628.913C581.616,634.883 581.839,635.398 581.681,637.507C580.773,649.657 566.816,791.827 561.636,829.518C558.957,849.009 560.282,849.08 557.635,868.5C557.383,870.352 558.841,870.703 558.889,870.79C556.41,873.9 556.428,873.8 554.011,877.023C551.699,880.107 552.56,875.752 553.88,862.539C554.36,857.73 558.178,819.5 560.135,802.462C565.309,757.421 572.876,676.101 574.712,659.521C577.53,634.066 575.921,632.844 580.264,630.121C591.015,623.38 734.535,524.541 737.436,525.772C737.952,525.992 738.424,526.205 736.915,530.665Z" style="fill:rgb(216,36,38);"/>
        <path d="M387.257,564.634L388.5,564.735C391.576,566.352 395.04,568.174 425.268,587.859C428.557,590 428.209,590.324 428.511,590.463C428.699,590.551 428.608,590.308 429.897,588.264C438.649,598.734 447.081,610.568 473.567,622.295C473.441,622.854 472.465,622.941 472.339,623.5C471.821,625.798 473.998,625.639 475.344,652.79C469.965,651.218 470.021,651.289 464.837,649.029C461.666,644.077 462.96,626.068 460.176,623.877C453.223,618.404 392.282,578.777 391.372,576.57C388.963,570.727 389.183,570.711 387.257,564.634Z" style="fill:rgb(160,29,29);"/>
        <path d="M636.778,566.599C633.84,574.888 635.194,576.117 627.747,580.891C627.551,581.016 577.981,614.675 568.708,620.82C562.715,624.791 562.9,625.358 562.129,632.462C560.59,646.649 560.919,646.751 559.344,649.271C554.118,651.394 554.097,651.17 548.752,652.956C551.336,627.684 550.934,627.629 551.546,625.509C552.039,623.802 551.849,623.845 551.391,622.126C565.923,615.608 577.828,608.753 592.187,591.251C592.608,591.461 593.079,591.563 593.5,591.773C595.57,592.806 594.81,590.352 601.814,585.992C634.735,565.498 635.295,563.697 636.946,565.702C637.139,565.937 636.585,566.364 636.778,566.599Z" style="fill:rgb(159,28,29);"/>
        <path d="M530.686,491.611C550.592,466.267 581.294,505.308 551.475,518.412C533.875,522.161 522.337,507.776 530.686,491.611Z" style="fill:rgb(203,34,36);"/>
        <path d="M287.014,530.642C286.732,529.589 286.386,528.553 286.103,527.5C284.991,523.354 289.428,525.508 332.287,554.811C334.612,556.401 427.156,618.062 443.395,629.656C443.578,629.787 444.264,630.276 445.745,631.205C444.157,633.113 444.577,634.091 442.475,633.771C441.244,633.585 300.803,537.877 288.51,529.5L287.014,530.642Z" style="fill:rgb(225,46,46);"/>
        <path d="M582.668,156.433C585.701,159.534 588.201,164.283 588.175,164.436C587.944,165.818 580.056,164.845 579.848,164.824C580.004,160.152 579.66,159.91 582.668,156.433Z" style="fill:rgb(110,20,21);"/>
        <path d="M442.288,155.418C442.533,156.498 442.2,156.534 442.758,157.489C443.049,157.987 443.884,159.414 444.527,164.476C437.588,165.37 435.207,166.046 436.607,163.55C436.685,163.411 439.647,158.327 442.288,155.418Z" style="fill:rgb(122,24,23);"/>
        <path d="M626.553,208.491C630.241,213.858 630.398,213.805 630.433,214.496C630.563,217.084 629.023,215.447 623.612,214.626C623.885,213.638 623.532,213.643 623.811,212.635C624.851,208.878 626.039,209.268 626.553,208.491Z" style="fill:rgb(125,21,23);"/>
        <path d="M398.183,207.421C399.608,211.033 400.152,210.803 400.388,214.65C397.917,215.12 398.034,215.404 395.495,215.58C391.735,215.841 394.826,213.65 398.183,207.421Z" style="fill:rgb(124,25,25);"/>
    </g>
</svg>
